<?xml version="1.0" encoding="iso-8859-1"?>
<!-- Generator: Adobe Illustrator 18.0.0, SVG Export Plug-In . SVG Version: 6.00 Build 0)  -->
<!DOCTYPE svg PUBLIC "-//W3C//DTD SVG 1.1//EN" "http://www.w3.org/Graphics/SVG/1.1/DTD/svg11.dtd">
<svg xmlns="http://www.w3.org/2000/svg" xmlns:xlink="http://www.w3.org/1999/xlink" version="1.1" id="Capa_1" x="0px" y="0px" viewBox="0 0 449.784 449.784" style="enable-background:new 0 0 449.784 449.784;" xml:space="preserve" width="512px" height="512px">
<g>
	<path d="M147.895,202.983h-20v-19c0-3.313-2.687-6-6-6h-23c-3.313,0-6,2.687-6,6v19h-21c-3.313,0-6,2.687-6,6v24   c0,3.313,2.687,6,6,6h21v21c0,3.313,2.687,6,6,6h23c3.313,0,6-2.687,6-6v-21h20c3.313,0,6-2.687,6-6v-24   C153.895,205.669,151.208,202.983,147.895,202.983z M141.895,226.983h-20c-3.313,0-6,2.687-6,6v21h-11v-21c0-3.313-2.687-6-6-6h-21   v-12h21c3.313,0,6-2.687,6-6v-19h11v19c0,3.313,2.687,6,6,6h20V226.983z" fill="#2b2b2b"/>
	<path d="M312.488,238.91h3.033c3.102,0,5.625,2.523,5.625,5.625v3.033c0,9.719,7.907,17.625,17.626,17.625   s17.625-7.907,17.625-17.625v-3.033c0-3.102,2.523-5.625,5.626-5.625h3.032c9.719,0,17.626-7.907,17.626-17.625   s-7.907-17.625-17.626-17.625h-3.032c-3.103,0-5.626-2.523-5.626-5.625v-3.033c0-9.719-7.906-17.626-17.625-17.626   s-17.626,7.907-17.626,17.626v3.033c0,3.102-2.523,5.625-5.625,5.625h-3.033c-9.719,0-17.626,7.907-17.626,17.625   S302.769,238.91,312.488,238.91z M312.488,215.659h3.033c9.719,0,17.625-7.907,17.625-17.625v-3.033   c0-3.102,2.523-5.626,5.626-5.626c3.102,0,5.625,2.524,5.625,5.626v3.033c0,9.719,7.907,17.625,17.626,17.625h3.032   c3.103,0,5.626,2.523,5.626,5.625s-2.523,5.625-5.626,5.625h-3.032c-9.719,0-17.626,7.907-17.626,17.625v3.033   c0,3.102-2.523,5.625-5.625,5.625c-3.103,0-5.626-2.523-5.626-5.625v-3.033c0-9.719-7.906-17.625-17.625-17.625h-3.033   c-3.103,0-5.626-2.523-5.626-5.625S309.385,215.659,312.488,215.659z" fill="#2b2b2b"/>
	<path d="M208.895,199.983h-24c-3.313,0-6,2.687-6,6s2.687,6,6,6h24c3.313,0,6-2.687,6-6S212.208,199.983,208.895,199.983z" fill="#2b2b2b"/>
	<path d="M270.895,205.983c0-3.313-2.687-6-6-6h-24c-3.313,0-6,2.687-6,6s2.687,6,6,6h24   C268.208,211.983,270.895,209.296,270.895,205.983z" fill="#2b2b2b"/>
	<path d="M448.051,317.289c0,0-22.549-102.068-22.762-104.245c-4.293-43.868-41.353-78.262-86.29-78.262   c-25.103,0-48.625,10.607-64.989,29.2h-44.115v-116h-12v116h-42.133c-16.335-18.556-39.866-29.141-65.013-29.141   c-44.658,0-81.536,33.98-86.2,77.472c-0.261,2.437-22.816,104.975-22.816,104.975c-3.666,16.056-1.471,32.929,6.18,47.513   c7.652,14.583,20.289,25.978,35.583,32.084c8.188,3.269,16.917,4.915,25.658,4.915c6.796,0,13.6-0.996,20.157-2.997   c14.989-4.575,28.107-14.225,36.937-27.172l52.051-76.325c0.924,0.075,1.856,0.124,2.799,0.124c16.9,0,30.969-12.319,33.719-28.448   h19.5c2.75,16.128,16.819,28.448,33.719,28.448c1.153,0,2.292-0.059,3.416-0.171l52.083,76.372   c8.829,12.948,21.947,22.598,36.937,27.172c6.559,2.001,13.36,2.997,20.157,2.997c8.74,0,17.472-1.646,25.658-4.915   c15.295-6.106,27.932-17.501,35.583-32.084C449.523,350.218,451.717,333.345,448.051,317.289z M116.334,364.871   c-15.204,22.295-43.325,30.877-68.388,20.87c-26.305-10.502-40.82-38.167-34.514-65.78l15.736-68.908   c4.269,11.8,11.129,22.598,20.298,31.691c16.347,16.212,38.119,25.141,61.304,25.141c19.653,0,37.52-6.136,52.049-17.769   c1.047,0.665,2.129,1.277,3.249,1.827L116.334,364.871z M181.098,283.431c-12.25,0-22.215-9.965-22.215-22.215   c0-12.249,9.965-22.215,22.215-22.215s22.215,9.965,22.215,22.215C203.313,273.465,193.348,283.431,181.098,283.431z    M234.401,254.983h-19.667c-2.94-15.899-16.899-27.982-33.636-27.982c-18.866,0-34.215,15.349-34.215,34.215   c0,7.763,2.603,14.927,6.976,20.674c-12.124,9.169-26.88,13.995-43.09,13.995c-19.999,0-38.769-7.693-52.854-21.662   c-14.102-13.985-21.868-32.657-21.868-52.577c0-41.247,33.511-74.804,74.701-74.804c22.519,0,43.516,9.824,57.609,26.953   c1.14,1.385,2.839,2.188,4.633,2.188h103.791c1.794,0,3.493-0.803,4.633-2.188c14.125-17.167,35.114-27.012,57.585-27.012   c41.194,0,74.708,33.549,74.708,74.788c0,41.131-33.533,74.593-74.751,74.593c-15.503,0-30.753-5.07-43.593-14.385   c4.322-5.729,6.889-12.851,6.889-20.563c0-18.866-15.35-34.215-34.216-34.215C251.3,227.001,237.341,239.084,234.401,254.983z    M245.822,261.216c0-12.249,9.966-22.215,22.215-22.215c12.25,0,22.216,9.965,22.216,22.215c0,12.25-9.966,22.215-22.216,22.215   C255.788,283.431,245.822,273.465,245.822,261.216z M401.837,385.741c-25.063,10.008-53.184,1.425-68.388-20.87l-49.902-73.174   c0.984-0.503,1.94-1.052,2.867-1.644c15.263,11.703,33.721,18.11,52.542,18.11c37.526,0,69.559-23.908,81.625-57.264l15.771,69.061   C442.658,347.574,428.142,375.239,401.837,385.741z" fill="#2b2b2b"/>
</g>
<g>
</g>
<g>
</g>
<g>
</g>
<g>
</g>
<g>
</g>
<g>
</g>
<g>
</g>
<g>
</g>
<g>
</g>
<g>
</g>
<g>
</g>
<g>
</g>
<g>
</g>
<g>
</g>
<g>
</g>
</svg>
